<svg version="1.2" xmlns="http://www.w3.org/2000/svg" viewBox="0 0 40 40" width="40" height="40">
	<style>
		.s0 { fill: #ffffff } 
		.s1 { fill: #2df4a1 } 
		.s2 { fill: #00d084 } 
	</style>
	<path class="s0" d="m144.32 22.49c0 7.2 4.44 11.38 12.05 11.38 1.97 0 3.79-0.33 5.25-0.96v-4.37c-1.35 0.79-3.16 1.21-5.25 1.21-4.61 0-7.32-2.7-7.32-7.27 0-4.52 2.71-7.2 7.32-7.2 2.13 0 3.97 0.43 5.25 1.21v-4.4c-1.47-0.67-3.29-0.97-5.25-0.97-7.6 0-12.05 4.17-12.05 11.37z"/>
	<path class="s0" d="m176.04 11c-7.52 0-11.96 4.23-11.96 11.49 0 7.27 4.43 11.51 11.96 11.51 7.52 0 11.96-4.23 11.96-11.51-0.01-7.26-4.44-11.49-11.96-11.49zm0 18.89c-4.62 0-7.3-2.74-7.3-7.38 0-4.63 2.67-7.35 7.3-7.35 4.64 0 7.3 2.72 7.3 7.35-0.01 4.64-2.67 7.38-7.3 7.38z"/>
	<path class="s0" d="m87.84 11.48l-8.84 22.04h4.85l6.88-17.37 6.84 17.37h4.88l-8.88-22.04z"/>
	<path class="s0" d="m140.86 11.48h-4.66v22.05h4.66z"/>
	<path class="s0" d="m118.59 23.19l-9.34-11.71h-4.34v22.04h4.67v-14.57l9.01 11.25 14.08-18.72h-5.39z"/>
	<path class="s0" d="m132.37 19.69h-4.67v13.84h4.67z"/>
	<path class="s0" d="m69.87 32c-0.58 0.41-1.22 0.75-1.84 1.01-1.49 0.64-3.45 0.99-5.33 0.99-7.38 0-11.7-4.23-11.7-11.51 0-7.26 4.32-11.49 11.7-11.49 7.39 0 11.69 4.23 11.69 11.49 0 0.26 0 0.56-0.03 0.79-0.03 0.37-0.08 0.79-0.18 1.08h-4.55c0.09-0.32 0.17-0.74 0.2-1.09 0.02-0.22 0.03-0.52 0.03-0.78 0-4.62-2.67-7.37-7.17-7.37-4.49 0-7.17 2.75-7.17 7.37 0 4.65 2.67 7.42 7.17 7.42 1.17 0 2.4-0.25 3.3-0.68q0.59-0.28 1.16-0.71l-2.53-3.23h5.12l6.26 8.22h-4.96z"/>
	<path class="s1" d="m14.7 12.79l5.3 5.3 5.3-5.3c2.92-2.93 2.92-7.67 0-10.6-2.93-2.92-7.67-2.92-10.6 0-2.93 2.93-2.93 7.67 0 10.6zm5.3-10.65c2.96 0 5.36 2.4 5.36 5.35 0 2.96-2.4 5.36-5.36 5.36-2.95 0-5.35-2.4-5.35-5.36-0.01-2.95 2.39-5.35 5.35-5.35z"/>
	<path class="s1" d="m20 21.91l-5.3 5.3c-2.93 2.93-2.93 7.67 0 10.6 2.93 2.92 7.67 2.92 10.6 0 2.92-2.93 2.92-7.67 0-10.6zm0 15.95c-2.96 0-5.36-2.4-5.36-5.35 0-2.96 2.4-5.36 5.36-5.36 2.95 0 5.35 2.4 5.35 5.36 0 2.95-2.4 5.35-5.35 5.35z"/>
	<path class="s1" d="m37.81 14.7c-2.93-2.92-7.67-2.92-10.6 0l-5.3 5.3 5.3 5.3c2.93 2.93 7.67 2.93 10.59 0 2.93-2.93 2.93-7.67 0.01-10.6zm-5.3 10.66c-2.96 0-5.36-2.4-5.36-5.36 0-2.95 2.4-5.35 5.36-5.35 2.95 0 5.35 2.4 5.35 5.35 0 2.96-2.39 5.36-5.35 5.36z"/>
	<path class="s1" d="m18.09 20l-5.3-5.3c-2.93-2.93-7.67-2.93-10.6 0-2.92 2.93-2.92 7.67 0 10.6 2.93 2.92 7.67 2.92 10.6 0zm-10.6 5.35c-2.95 0-5.35-2.4-5.35-5.35 0-2.96 2.4-5.36 5.35-5.36 2.96 0 5.36 2.4 5.36 5.36 0 2.95-2.4 5.35-5.36 5.35z"/>
	<path class="s1" d="m10.42 21.21c0.67-1.61-0.1-3.46-1.71-4.13-1.62-0.67-3.47 0.09-4.14 1.71-0.67 1.62 0.1 3.47 1.71 4.14 1.62 0.66 3.47-0.1 4.14-1.72z"/>
	<path class="s1" d="m22.33 28.92l-2.33 2.33-2.33-2.33-1.26 1.26 2.33 2.33-2.33 2.33 1.26 1.26 2.33-2.33 2.33 2.33 1.26-1.26-2.33-2.33 2.33-2.33z"/>
	<path class="s1" d="m20 3.35l-3.75 6.49h7.5z"/>
	<path class="s2" d="m35.67 16.84h-6.33v6.32h6.33z"/>
</svg>